# xmcd CD database file
#
# Track frame offsets:
#	150
#	12103
#	27568
#	37975
#	52941
#	69983
#	86657
#	99383
#	116677
#	130815
#	148658
#	167122
#	186920
#	200074
#	222683
#	238311
#	254284
#
# Disc length: 3621 seconds
#
# Revision: 0
# Processed by: cddbd v1.5.2PL0 Copyright (c) Steve Scherf et al.
# Submitted via: CDex 1.73
#
DISCID=fa0e2311
DTITLE=Vrbova Jitka - Nejkrasnejsi pisnicky Jitky Vrbove CD4
DYEAR=2011
DGENRE=Country
TTITLE0=Tam pod nebeskou bani
TTITLE1=Ticha noc, svata noc
TTITLE2=To staci
TTITLE3=Tulacky blues
TTITLE4=Udoli oddechu
TTITLE5=Udolim zni pisen znama
TTITLE6=Vitaminy
TTITLE7=Vsem, kdo byli spravni trampi
TTITLE8=Vzdyt jsou Vanoca
TTITLE9=Zase praska v krbu drivi
TTITLE10=Zeme moudrych jestrabu
TTITLE11=Zapominam zapomenout
TTITLE12=Zadny vikend vecne netrva
TTITLE13=Za velkou louzi
TTITLE14=Zas na nebi hvezdy blednou
TTITLE15=Z Prahy az na onen svet
TTITLE16=Zlatej zub
EXTD=YEAR: 2011
EXTT0=
EXTT1=
EXTT2=
EXTT3=
EXTT4=
EXTT5=
EXTT6=
EXTT7=
EXTT8=
EXTT9=
EXTT10=
EXTT11=
EXTT12=
EXTT13=
EXTT14=
EXTT15=
EXTT16=
PLAYORDER=
